<svg xmlns="http://www.w3.org/2000/svg" xmlns:svgjs="http://svgjs.dev/svgjs" xmlns:xlink="http://www.w3.org/1999/xlink" width="387" height="394" version="1.1"><svg xmlns="http://www.w3.org/2000/svg" width="387" height="394" fill="none" viewBox="0 0 387 394"><g clip-path="url(#clip0_1_45)"><path fill="#fff" d="M52.8767 256.965C32.5644 180.1 78.4121 101.324 155.281 81.0122C232.149 60.7008 310.93 106.546 331.242 183.411C351.554 260.275 305.707 339.052 228.838 359.363C151.97 379.674 73.1891 333.829 52.8767 256.965Z"/><path fill="#fff" d="M73.3583 243.82C59.7979 176.915 103.045 111.686 169.953 98.1262C236.861 84.5666 302.094 127.811 315.654 194.716C329.215 261.621 285.968 326.85 219.06 340.41C152.151 353.97 86.9186 310.725 73.3583 243.82Z"/><path fill="#F41C1C" d="M93.0451 250.403L94.7046 235.137C99.6693 237.353 103.908 238.904 107.416 239.781C110.928 240.658 114.181 241.063 117.18 240.997C120.777 240.917 123.611 240.172 125.681 238.753C127.755 237.33 128.934 235.26 129.231 232.54C129.396 231.017 129.122 229.673 128.401 228.509C127.684 227.349 126.567 226.236 125.044 225.171C123.521 224.115 120.376 222.432 115.591 220.14C111.107 218.014 107.793 215.949 105.657 213.955C103.516 211.956 101.895 209.608 100.777 206.916C99.6599 204.224 99.3015 201.061 99.6928 197.421C100.438 190.566 103.342 185.121 108.396 181.1C113.469 177.078 120.089 174.976 128.269 174.801C132.286 174.716 136.072 175.108 139.617 175.98C143.158 176.857 146.836 178.12 150.631 179.766L143.955 192.655C140.013 191.052 136.727 189.939 134.106 189.326C131.48 188.709 128.863 188.436 126.256 188.492C123.153 188.563 120.692 189.331 118.877 190.821C117.067 192.306 116.029 194.211 115.775 196.544C115.619 197.996 115.817 199.251 116.369 200.316C116.925 201.382 117.878 202.4 119.231 203.376C120.584 204.347 123.851 206.082 129.033 208.581C135.888 211.89 140.461 215.256 142.767 218.684C145.072 222.102 145.945 226.345 145.393 231.399C144.634 238.395 141.527 243.963 136.062 248.102C130.598 252.237 123.394 254.405 114.436 254.599C106.185 254.773 99.0564 253.373 93.0451 250.403Z"/><path fill="#F41C1C" d="M164.266 250.153C160.197 247.753 157.255 244.246 155.431 239.635C153.611 235.019 153.035 229.602 153.71 223.379C154.761 213.696 158.104 206.11 163.724 200.632C169.353 195.154 176.727 192.306 185.864 192.113C191.541 191.99 196.411 193.126 200.485 195.502C204.549 197.883 207.495 201.363 209.32 205.94C211.149 210.523 211.72 215.921 211.046 222.139C210.004 231.79 206.642 239.39 200.975 244.943C195.303 250.497 187.939 253.373 178.877 253.571C173.2 253.689 168.325 252.553 164.266 250.153ZM190.268 235.892C192.474 232.87 193.903 228.4 194.544 222.498C195.181 216.633 194.709 212.253 193.12 209.358C191.536 206.468 188.58 205.068 184.238 205.158C179.933 205.252 176.68 206.779 174.45 209.735C172.229 212.691 170.801 217.123 170.159 223.021C169.523 228.89 170.004 233.308 171.602 236.273C173.196 239.229 176.161 240.667 180.499 240.573C184.803 240.479 188.057 238.923 190.268 235.892Z"/><path fill="#F41C1C" d="M243.955 245.561C242.818 244.962 239.098 237.273 240.574 231.78C241.258 225.487 243.955 220.8 248.669 217.717C253.384 214.638 260.183 212.842 269.07 212.333L279.367 211.791L279.65 209.198C280.301 203.187 277.557 200.25 271.423 200.382C266.694 200.481 260.989 202.037 254.294 205.035L250.14 194.229C257.335 190.514 265.072 188.563 273.36 188.384C281.291 188.219 287.184 189.812 291.041 193.192C294.897 196.558 296.439 201.782 295.671 208.854L291.385 248.352L280.121 248.592L275.628 248.677L276.236 241.931L277.858 225.633L278.339 221.229L272.073 221.574C267.368 221.824 263.789 222.748 261.328 224.35C258.867 225.953 257.462 228.344 257.118 231.526C256.623 236.09 258.985 238.305 264.2 238.197C264.996 238.178 272.021 237.631 272.762 237.518L271.654 248.927C255.793 250.799 247.203 249.337 243.955 245.561Z"/><path fill="#F41C1C" d="M229.576 253.524L215.743 252.024C215.17 251.962 214.756 251.447 214.818 250.874L223.766 168.38C223.828 167.807 224.343 167.394 224.916 167.456L238.749 168.956C239.321 169.018 239.735 169.533 239.673 170.105L230.725 252.6C230.663 253.172 230.148 253.586 229.576 253.524Z"/><path fill="#FFCF00" fill-rule="evenodd" d="M193.031 378.1C193.964 364.522 171.753 365.04 153.889 368.987C130.395 377.52 122.456 361.594 113.059 347.974C108.161 357.766 114.733 367.563 123.361 377.355C109.108 365.088 99.0186 351.529 92.6443 336.815C81.4091 320.823 68.8585 329.564 69.6034 348.53C65.4356 339.233 64.0919 329.936 69.9806 320.635C65.3035 321.375 60.6171 320.771 55.9353 319.522C43.3564 318.815 37.4959 307.349 31.9608 295.351C39.4384 306.703 48.0193 313.294 60.0513 305.02C67.7316 291.631 55.3412 277.733 48.0664 266.526C38.2267 257.267 23.1584 262.246 10.8341 256.23C-6.60579 244.84 0.654964 224.369 7.4772 212.559C4.04486 219.608 2.22024 227.118 6.72282 236.452C16.4588 250.898 27.694 249.719 39.4526 243.1C23.6488 220.286 17.2084 194.517 30.6973 165.792C43.809 143.572 61.6543 130.513 68.3869 109.746C69.3535 98.8929 66.8736 89.5863 61.3432 81.666C66.0909 84.5654 70.6265 91.0761 74.5727 106.969C80.1597 79.9452 92.0738 62.7939 110.956 56.5425C126.619 42.0548 145.464 27.7133 126.935 20.9904C117.788 18.7887 103.592 26.1339 102.592 21.5043C102.159 17.6054 102.517 13.8809 108.203 11.321C113.191 8.05853 117.034 4.23512 117.915 -1.02626C118.538 4.70657 114.884 9.11937 109.551 13.0183C108.25 18.0675 111.286 20.1088 120.16 18.1051C133.521 13.4236 145.751 11.3587 154.153 18.1711C160.952 25.3938 159.815 35.101 156.84 45.388C157.052 56.5001 163.417 63.7368 176.237 66.905C167.877 50.8097 171.079 40.6027 185.487 36.1098C191.395 32.291 196.213 27.7228 198.886 21.6741C196.001 31.0182 189.268 36.7604 181.937 41.9464C174.266 52.6436 180.735 59.885 195.671 65.0474C206.765 58.2114 218.335 52.0825 234.063 52.1438C253.757 52.785 272.267 58.3388 287.524 77.3948C295.741 85.7583 303.473 94.9232 309.796 106.422C319.678 106.771 322.229 102.957 319.164 95.9652L314.6 84.457C320.97 90.6189 325.51 97.9735 324.61 105.413C323.12 110.896 317.457 114.734 311.286 114.21C310.838 124.012 315.043 131.772 322.969 137.901C341.79 154.911 358.928 147.103 350.781 129.25C348.405 120.405 337.075 118.562 334.567 112.504C332.964 105.573 334.647 100.133 338.57 95.7105C337.802 105.738 339.876 114.432 348.221 120.169C356.481 127.797 364.694 135.463 363.902 150.328C362.818 159.059 358.098 163.797 350.126 164.952C362.031 171.534 372.917 178.893 370.635 196.379C360.074 223.398 353.148 239.097 361.238 248.918C368.306 252.468 373.813 252.685 375.623 241.181L376.986 238.352L378.023 242.817C379.329 249.351 375.359 256.093 370.079 259.926C360.22 261.732 355.015 255.65 351.951 245.943C354.35 231.512 361.644 220.07 359.89 206.223C359.164 202.221 356.991 198.374 353.898 197.893C338.429 246.546 348.532 259.794 362.738 267.365C378.127 269.506 382.596 259.582 386.113 248.173C388.48 258.12 386.264 266.606 377.57 273.018C351.653 286.407 327.207 294.012 308.028 312.46C297 325.326 291.781 335.702 302.974 339.05C309.904 332.157 317.962 329.488 327.358 331.888C320.131 329.993 313.879 333.463 307.929 338.512C285.671 362.796 265.723 367.421 246.618 364.8C239.433 376.78 228.457 382.998 215.317 385.907C197.406 382.951 180.31 384.658 164.374 392.974C169.57 388.014 177.128 383.055 193.031 378.1ZM254.167 347.946C324.124 314.765 354.482 229.951 321.932 158.64C289.386 87.3235 206.194 56.3727 136.237 89.5534C66.2795 122.734 35.9212 207.548 68.4718 278.864C101.022 350.18 184.214 381.126 254.167 347.946Z" clip-rule="evenodd"/><mask id="SvgjsMask1223" style="mask-type:luminance" width="387" height="395" x="0" y="-2" maskUnits="userSpaceOnUse"><path fill="#fff" d="M193.031 378.1C193.964 364.522 171.753 365.04 153.889 368.987C130.395 377.52 122.456 361.594 113.059 347.974C108.161 357.766 114.733 367.563 123.361 377.355C109.108 365.088 99.0186 351.529 92.6443 336.815C81.4091 320.823 68.8585 329.564 69.6034 348.53C65.4356 339.233 64.0919 329.936 69.9806 320.635C65.3035 321.375 60.6171 320.771 55.9353 319.522C43.3564 318.815 37.4959 307.349 31.9608 295.351C39.4384 306.703 48.0193 313.294 60.0513 305.02C67.7316 291.631 55.3412 277.733 48.0664 266.526C38.2267 257.267 23.1584 262.246 10.8341 256.23C-6.60579 244.84 0.654964 224.369 7.4772 212.559C4.04486 219.608 2.22024 227.118 6.72282 236.452C16.4588 250.898 27.694 249.719 39.4526 243.1C23.6488 220.286 17.2084 194.517 30.6973 165.792C43.809 143.572 61.6543 130.513 68.3869 109.746C69.3535 98.8929 66.8736 89.5863 61.3432 81.666C66.0909 84.5654 70.6265 91.0761 74.5727 106.969C80.1597 79.9452 92.0738 62.7939 110.956 56.5425C126.619 42.0548 145.464 27.7133 126.935 20.9904C117.788 18.7887 103.592 26.1339 102.592 21.5043C102.159 17.6054 102.517 13.8809 108.203 11.321C113.191 8.05853 117.034 4.23512 117.915 -1.02626C118.538 4.70657 114.884 9.11937 109.551 13.0183C108.25 18.0675 111.286 20.1088 120.16 18.1051C133.521 13.4236 145.751 11.3587 154.153 18.1711C160.952 25.3938 159.815 35.101 156.84 45.388C157.052 56.5001 163.417 63.7368 176.237 66.905C167.877 50.8097 171.079 40.6027 185.487 36.1098C191.395 32.291 196.213 27.7228 198.886 21.6741C196.001 31.0182 189.268 36.7604 181.937 41.9464C174.266 52.6436 180.735 59.885 195.671 65.0474C206.765 58.2114 218.335 52.0825 234.063 52.1438C253.757 52.785 272.267 58.3388 287.524 77.3948C295.741 85.7583 303.473 94.9232 309.796 106.422C319.678 106.771 322.229 102.957 319.164 95.9652L314.6 84.457C320.97 90.6189 325.51 97.9735 324.61 105.413C323.12 110.896 317.457 114.734 311.286 114.21C310.838 124.012 315.043 131.772 322.969 137.901C341.79 154.911 358.928 147.103 350.781 129.25C348.405 120.405 337.075 118.562 334.567 112.504C332.964 105.573 334.647 100.133 338.57 95.7105C337.802 105.738 339.876 114.432 348.221 120.169C356.481 127.797 364.694 135.463 363.902 150.328C362.818 159.059 358.098 163.797 350.126 164.952C362.031 171.534 372.917 178.893 370.635 196.379C360.074 223.398 353.148 239.097 361.238 248.918C368.306 252.468 373.813 252.685 375.623 241.181L376.986 238.352L378.023 242.817C379.329 249.351 375.359 256.093 370.079 259.926C360.22 261.732 355.015 255.65 351.951 245.943C354.35 231.512 361.644 220.07 359.89 206.223C359.164 202.221 356.991 198.374 353.898 197.893C338.429 246.546 348.532 259.794 362.738 267.365C378.127 269.506 382.596 259.582 386.113 248.173C388.48 258.12 386.264 266.606 377.57 273.018C351.653 286.407 327.207 294.012 308.028 312.46C297 325.326 291.781 335.702 302.974 339.05C309.904 332.157 317.962 329.488 327.358 331.888C320.131 329.993 313.879 333.463 307.929 338.512C285.671 362.796 265.723 367.421 246.618 364.8C239.433 376.78 228.457 382.998 215.317 385.907C197.406 382.951 180.31 384.658 164.374 392.974C169.57 388.014 177.128 383.055 193.031 378.1ZM254.167 347.946C324.124 314.765 354.482 229.951 321.932 158.64C289.386 87.3235 206.194 56.3727 136.237 89.5534C66.2795 122.734 35.9212 207.548 68.4718 278.864C101.022 350.18 184.214 381.126 254.167 347.946Z"/></mask><g mask="url(#mask0_1_45)"><path fill="#FFCF00" fill-rule="evenodd" d="M193.031 378.1C193.964 364.522 171.753 365.04 153.889 368.987C130.391 377.52 122.456 361.594 113.059 347.974C108.161 357.766 114.733 367.563 123.361 377.355C109.104 365.088 99.0188 351.529 92.6397 336.815C81.4092 320.823 68.8586 329.564 69.6035 348.53C65.4357 339.233 64.092 329.936 69.9807 320.635C65.3037 321.375 60.6171 320.771 55.9307 319.522C43.3565 318.815 37.496 307.349 31.9609 295.351C39.4385 306.703 48.0194 313.294 60.0514 305.02C67.7317 291.631 55.3414 277.733 48.0665 266.526C38.2221 257.267 23.1585 262.246 10.8342 256.23C-6.60567 244.84 0.655042 224.369 7.47256 212.559C4.04494 219.608 2.22035 227.118 6.72293 236.452C16.4589 250.898 27.6941 249.719 39.4527 243.1C23.6489 220.286 17.2086 194.517 30.6974 165.792C43.8091 143.572 61.6544 130.513 68.387 109.746C69.3536 98.8929 66.8737 89.5863 61.3433 81.666C66.091 84.5654 70.6266 91.0761 74.5728 106.969C80.1598 79.9452 92.0739 62.7939 110.956 56.5425C126.619 42.0548 145.459 27.7133 126.935 20.9904C117.788 18.7887 103.587 26.1339 102.593 21.5043C102.159 17.6054 102.512 13.8809 108.203 11.321C113.191 8.05853 117.034 4.23512 117.915 -1.02626C118.533 4.70657 114.884 9.11937 109.551 13.0183C108.25 18.0675 111.286 20.1088 120.16 18.1051C133.521 13.4236 145.751 11.3587 154.148 18.1711C160.947 25.3938 159.815 35.101 156.84 45.388C157.053 56.5001 163.413 63.7368 176.237 66.905C167.878 50.8097 171.079 40.6027 185.482 36.1098C191.395 32.291 196.213 27.7228 198.886 21.6741C196.001 31.0182 189.268 36.7604 181.937 41.9464C174.266 52.6436 180.735 59.885 195.671 65.0474C206.765 58.2114 218.33 52.0825 234.063 52.1438C253.757 52.785 272.267 58.3388 287.524 77.3948C295.741 85.7583 303.474 94.9232 309.796 106.422C319.673 106.771 322.229 102.957 319.164 95.9652L314.6 84.457C320.97 90.6189 325.506 97.9735 324.605 105.413C323.12 110.896 317.458 114.734 311.286 114.21C310.838 124.012 315.044 131.772 322.964 137.901C341.79 154.911 358.928 147.103 350.781 129.25C348.405 120.405 337.076 118.562 334.567 112.504C332.964 105.573 334.643 100.133 338.57 95.7105C337.802 105.738 339.876 114.432 348.221 120.169C356.481 127.797 364.695 135.463 363.902 150.328C362.818 159.059 358.099 163.797 350.126 164.952C362.031 171.534 372.917 178.893 370.635 196.379C360.074 223.398 353.148 239.097 361.239 248.918C368.306 252.468 373.813 252.685 375.623 241.181L376.986 238.352L378.023 242.817C379.324 249.351 375.359 256.093 370.079 259.926C360.22 261.732 355.01 255.65 351.951 245.943C354.35 231.512 361.644 220.07 359.89 206.223C359.164 202.221 356.986 198.374 353.898 197.893C338.429 246.546 348.528 259.794 362.738 267.365C378.127 269.506 382.596 259.582 386.114 248.173C388.48 258.12 386.264 266.606 377.57 273.018C351.649 286.407 327.208 294.012 308.028 312.46C297 325.326 291.781 335.702 302.974 339.05C309.905 332.157 317.957 329.488 327.358 331.888C320.131 329.993 313.879 333.463 307.924 338.512C285.671 362.796 265.723 367.421 246.619 364.8C239.433 376.78 228.457 382.998 215.317 385.907C197.406 382.951 180.31 384.658 164.375 392.974C169.57 388.014 177.123 383.055 193.031 378.1ZM254.167 347.946C324.124 314.765 354.478 229.951 321.932 158.64C289.381 87.3235 206.19 56.3727 136.237 89.5534C66.2796 122.734 35.9213 207.548 68.4719 278.864C101.023 350.18 184.214 381.126 254.167 347.946Z" clip-rule="evenodd"/></g><path fill="red" fill-rule="evenodd" d="M67.9909 251.586C50.0607 180.619 92.6537 108.364 163.073 90.2936C233.493 72.2276 305.194 115.153 323.124 186.116C341.055 257.074 298.457 329.333 228.042 347.404C157.618 365.469 85.9163 322.544 67.9909 251.586ZM224.421 333.095C287.005 317.038 324.864 252.821 308.928 189.76C292.993 126.694 229.268 88.5445 166.689 104.602C104.106 120.66 66.2512 184.876 82.1823 247.942C98.1181 311.003 161.847 349.153 224.421 333.095Z" clip-rule="evenodd"/></g><defs><clipPath id="SvgjsClipPath1222"><rect width="387" height="394" fill="#fff"/></clipPath></defs></svg><style>@media (prefers-color-scheme:light){:root{filter:none}}@media (prefers-color-scheme:dark){:root{filter:none}}</style></svg>