<svg xmlns="http://www.w3.org/2000/svg" width="1200" height="628" fill="none" viewBox="0 0 1200 628"><rect width="1200" height="628" fill="#fff"/><g clip-path="url(#clip0_1_2)" filter="url(#filter0_b_1_2)"><mask id="mask0_1_2" style="mask-type:luminance" width="436" height="444" x="382" y="92" maskUnits="userSpaceOnUse"><path fill="#fff" d="M818 92H382V536H818V92Z"/></mask><g mask="url(#mask0_1_2)"><path fill="#fff" d="M441.572 381.575C418.688 294.955 470.34 206.182 556.942 183.293C643.543 160.404 732.298 212.067 755.182 298.687C778.066 385.305 726.414 474.079 639.812 496.967C553.212 519.856 464.456 468.193 441.572 381.575Z"/><path fill="#fff" d="M464.647 366.762C449.369 291.366 498.092 217.859 573.472 202.579C648.851 187.298 722.344 236.031 737.621 311.426C752.899 386.822 704.176 460.328 628.796 475.609C553.416 490.89 479.924 442.157 464.647 366.762Z"/><path fill="#F41C1C" d="M486.826 374.18L488.696 356.977C494.289 359.474 499.064 361.222 503.016 362.21C506.973 363.198 510.638 363.655 514.017 363.58C518.069 363.49 521.262 362.651 523.594 361.052C525.931 359.448 527.259 357.115 527.594 354.05C527.779 352.334 527.471 350.819 526.658 349.508C525.851 348.2 524.592 346.946 522.876 345.746C521.161 344.556 517.617 342.659 512.227 340.077C507.175 337.681 503.441 335.354 501.035 333.107C498.623 330.854 496.796 328.208 495.537 325.174C494.278 322.141 493.875 318.576 494.315 314.474C495.155 306.75 498.427 300.614 504.121 296.082C509.836 291.55 517.294 289.181 526.51 288.984C531.035 288.888 535.301 289.33 539.295 290.312C543.284 291.301 547.428 292.724 551.703 294.579L544.182 309.104C539.741 307.297 536.039 306.043 533.086 305.352C530.127 304.657 527.179 304.349 524.242 304.412C520.746 304.492 517.973 305.358 515.929 307.037C513.889 308.71 512.72 310.857 512.434 313.486C512.258 315.122 512.481 316.537 513.103 317.737C513.729 318.938 514.803 320.085 516.327 321.185C517.852 322.279 521.532 324.235 527.371 327.051C535.093 330.78 540.245 334.573 542.843 338.436C545.44 342.288 546.424 347.069 545.802 352.764C544.947 360.648 541.446 366.923 535.289 371.587C529.134 376.247 521.018 378.69 510.925 378.909C501.63 379.105 493.598 377.527 486.826 374.18Z"/><path fill="#F41C1C" d="M567.065 373.898C562.48 371.194 559.166 367.242 557.111 362.046C555.06 356.844 554.412 350.739 555.172 343.727C556.356 332.815 560.122 324.266 566.454 318.093C572.796 311.92 581.103 308.71 591.397 308.493C597.793 308.354 603.28 309.634 607.869 312.312C612.448 314.995 615.767 318.917 617.823 324.075C619.884 329.239 620.527 335.322 619.768 342.329C618.594 353.205 614.806 361.769 608.421 368.027C602.031 374.286 593.735 377.527 583.525 377.75C577.13 377.883 571.637 376.603 567.065 373.898ZM596.359 357.828C598.844 354.422 600.454 349.385 601.176 342.734C601.894 336.124 601.362 331.189 599.572 327.926C597.787 324.67 594.457 323.092 589.565 323.193C584.715 323.299 581.05 325.02 578.538 328.351C576.036 331.682 574.427 336.677 573.704 343.323C572.987 349.937 573.529 354.916 575.329 358.257C577.125 361.588 580.466 363.208 585.353 363.103C590.202 362.997 593.868 361.243 596.359 357.828Z"/><path fill="#F41C1C" d="M656.843 368.724C655.562 368.049 651.371 359.384 653.034 353.194C653.805 346.102 656.843 340.82 662.154 337.346C667.466 333.876 675.126 331.852 685.138 331.279L696.739 330.668L697.058 327.746C697.791 320.972 694.7 317.662 687.789 317.811C682.461 317.923 676.034 319.676 668.491 323.055L663.812 310.877C671.918 306.691 680.634 304.492 689.971 304.291C698.907 304.105 705.546 305.9 709.891 309.709C714.235 313.502 715.973 319.389 715.107 327.358L710.279 371.869L697.589 372.139L692.527 372.235L693.212 364.633L695.039 346.267L695.581 341.304L688.522 341.693C683.221 341.974 679.189 343.016 676.416 344.821C673.643 346.627 672.061 349.322 671.673 352.907C671.115 358.051 673.776 360.547 679.652 360.425C680.549 360.404 688.463 359.787 689.298 359.66L688.049 372.517C670.18 374.626 660.503 372.979 656.843 368.724Z"/><path fill="#F41C1C" d="M640.644 377.697L625.059 376.007C624.414 375.937 623.947 375.357 624.017 374.711L634.098 281.748C634.168 281.102 634.748 280.637 635.394 280.707L650.978 282.397C651.623 282.467 652.089 283.047 652.019 283.692L641.938 376.656C641.868 377.3 641.288 377.767 640.644 377.697Z"/><path fill="#FFCF00" fill-rule="evenodd" d="M599.472 518.082C600.523 502.781 575.5 503.365 555.374 507.813C528.905 517.429 519.961 499.482 509.374 484.133C503.856 495.168 511.26 506.208 520.98 517.243C504.923 503.419 493.556 488.139 486.374 471.558C473.717 453.537 459.577 463.387 460.416 484.76C455.721 474.283 454.207 463.806 460.841 453.325C455.572 454.159 450.292 453.478 445.018 452.07C430.846 451.274 424.243 438.353 418.008 424.832C426.432 437.625 436.099 445.052 449.655 435.728C458.307 420.64 444.348 404.978 436.152 392.349C425.067 381.915 408.091 387.526 394.206 380.746C374.558 367.911 382.738 344.842 390.424 331.533C386.557 339.477 384.501 347.94 389.574 358.459C400.543 374.738 413.2 373.409 426.448 365.95C408.643 340.241 401.387 311.202 416.584 278.832C431.356 253.792 451.461 239.076 459.046 215.673C460.135 203.443 457.341 192.955 451.11 184.03C456.459 187.297 461.569 194.634 466.015 212.544C472.309 182.091 485.732 162.763 507.005 155.718C524.651 139.392 545.882 123.23 525.007 115.654C514.702 113.173 498.708 121.45 497.582 116.233C497.094 111.84 497.497 107.642 503.903 104.758C509.523 101.081 513.852 96.7726 514.845 90.8435C515.547 97.3039 511.43 102.277 505.422 106.67C503.956 112.36 507.376 114.661 517.374 112.403C532.427 107.127 546.205 104.8 555.671 112.477C563.331 120.616 562.05 131.555 558.698 143.148C558.937 155.67 566.108 163.825 580.551 167.395C571.133 149.258 574.74 137.755 590.972 132.692C597.628 128.389 603.056 123.241 606.068 116.425C602.818 126.955 595.232 133.425 586.973 139.27C578.331 151.324 585.619 159.485 602.446 165.302C614.945 157.599 627.979 150.692 645.699 150.761C667.886 151.484 688.74 157.742 705.929 179.216C715.186 188.641 723.897 198.969 731.021 211.927C742.154 212.321 745.028 208.023 741.575 200.144L736.433 187.175C743.61 194.119 748.724 202.407 747.71 210.79C746.032 216.969 739.652 221.294 732.699 220.704C732.195 231.75 736.932 240.494 745.862 247.401C767.066 266.57 786.374 257.771 777.195 237.652C774.518 227.685 761.754 225.608 758.928 218.781C757.122 210.971 759.018 204.84 763.438 199.857C762.573 211.157 764.909 220.954 774.311 227.419C783.617 236.015 792.87 244.654 791.977 261.405C790.756 271.244 785.439 276.583 776.457 277.885C789.87 285.302 802.134 293.595 799.563 313.3C787.665 343.748 779.862 361.439 788.976 372.507C796.939 376.507 803.143 376.752 805.182 363.788L806.718 360.6L807.886 365.631C809.358 372.995 804.885 380.592 798.937 384.912C787.829 386.947 781.965 380.093 778.513 369.154C781.216 352.892 789.434 339.998 787.457 324.393C786.64 319.884 784.191 315.548 780.707 315.006C763.279 369.834 774.661 384.763 790.666 393.295C808.004 395.707 813.038 384.524 817.001 371.667C819.667 382.876 817.171 392.439 807.376 399.665C778.178 414.753 750.636 423.323 729.029 444.112C716.605 458.611 710.725 470.304 723.335 474.077C731.142 466.309 740.221 463.301 750.806 466.006C742.664 463.87 735.621 467.781 728.917 473.47C703.841 500.836 681.367 506.048 659.844 503.094C651.749 516.595 639.383 523.602 624.579 526.88C604.401 523.549 585.14 525.472 567.186 534.844C573.04 529.254 581.555 523.666 599.472 518.082ZM668.348 484.102C747.163 446.71 781.365 351.133 744.693 270.772C708.027 190.405 614.301 155.527 535.487 192.918C456.671 230.309 422.469 325.887 459.141 406.253C495.813 486.619 589.538 521.492 668.348 484.102Z" clip-rule="evenodd"/><mask id="mask1_1_2" style="mask-type:luminance" width="436" height="445" x="382" y="90" maskUnits="userSpaceOnUse"><path fill="#fff" d="M599.472 518.082C600.523 502.781 575.5 503.365 555.374 507.813C528.905 517.429 519.961 499.482 509.374 484.133C503.856 495.168 511.26 506.208 520.98 517.243C504.923 503.419 493.556 488.139 486.374 471.558C473.717 453.537 459.577 463.387 460.416 484.76C455.721 474.283 454.207 463.806 460.841 453.325C455.572 454.159 450.292 453.478 445.018 452.07C430.846 451.274 424.243 438.353 418.008 424.832C426.432 437.625 436.099 445.052 449.655 435.728C458.307 420.64 444.348 404.978 436.152 392.349C425.067 381.915 408.091 387.526 394.206 380.746C374.558 367.911 382.738 344.842 390.424 331.533C386.557 339.477 384.501 347.94 389.574 358.459C400.543 374.738 413.2 373.409 426.448 365.95C408.643 340.241 401.387 311.202 416.584 278.832C431.356 253.792 451.461 239.076 459.046 215.673C460.135 203.443 457.341 192.955 451.11 184.03C456.459 187.297 461.569 194.634 466.015 212.544C472.309 182.091 485.732 162.763 507.005 155.718C524.651 139.392 545.882 123.23 525.007 115.654C514.702 113.173 498.708 121.45 497.582 116.233C497.094 111.84 497.497 107.642 503.903 104.758C509.523 101.081 513.852 96.7726 514.845 90.8435C515.547 97.3039 511.43 102.277 505.422 106.67C503.956 112.36 507.376 114.661 517.374 112.403C532.427 107.127 546.205 104.8 555.671 112.477C563.331 120.616 562.05 131.555 558.698 143.148C558.937 155.67 566.108 163.825 580.551 167.395C571.133 149.258 574.74 137.755 590.972 132.692C597.628 128.389 603.056 123.241 606.068 116.425C602.818 126.955 595.232 133.425 586.973 139.27C578.331 151.324 585.619 159.485 602.446 165.302C614.945 157.599 627.979 150.692 645.699 150.761C667.886 151.484 688.74 157.742 705.929 179.216C715.186 188.641 723.897 198.969 731.021 211.927C742.154 212.321 745.028 208.023 741.575 200.144L736.433 187.175C743.61 194.119 748.724 202.407 747.71 210.79C746.032 216.969 739.652 221.294 732.699 220.704C732.195 231.75 736.932 240.494 745.862 247.401C767.066 266.57 786.374 257.771 777.195 237.652C774.518 227.685 761.754 225.608 758.928 218.781C757.122 210.971 759.018 204.84 763.438 199.857C762.573 211.157 764.909 220.954 774.311 227.419C783.617 236.015 792.87 244.654 791.977 261.405C790.756 271.244 785.439 276.583 776.457 277.885C789.87 285.302 802.134 293.595 799.563 313.3C787.665 343.748 779.862 361.439 788.976 372.507C796.939 376.507 803.143 376.752 805.182 363.788L806.718 360.6L807.886 365.631C809.358 372.995 804.885 380.592 798.937 384.912C787.829 386.947 781.965 380.093 778.513 369.154C781.216 352.892 789.434 339.998 787.457 324.393C786.64 319.884 784.191 315.548 780.707 315.006C763.279 369.834 774.661 384.763 790.666 393.295C808.004 395.707 813.038 384.524 817.001 371.667C819.667 382.876 817.171 392.439 807.376 399.665C778.178 414.753 750.636 423.323 729.029 444.112C716.605 458.611 710.725 470.304 723.335 474.077C731.142 466.309 740.221 463.301 750.806 466.006C742.664 463.87 735.621 467.781 728.917 473.47C703.841 500.836 681.367 506.048 659.844 503.094C651.749 516.595 639.383 523.602 624.579 526.88C604.401 523.549 585.14 525.472 567.186 534.844C573.04 529.254 581.555 523.666 599.472 518.082ZM668.348 484.102C747.163 446.71 781.365 351.133 744.693 270.772C708.027 190.405 614.301 155.527 535.487 192.918C456.671 230.309 422.469 325.887 459.141 406.253C495.813 486.619 589.538 521.492 668.348 484.102Z"/></mask><g mask="url(#mask1_1_2)"><path fill="#FFCF00" fill-rule="evenodd" d="M599.472 518.082C600.523 502.781 575.5 503.365 555.374 507.813C528.901 517.429 519.961 499.482 509.374 484.133C503.856 495.168 511.26 506.208 520.98 517.243C504.918 503.419 493.556 488.139 486.369 471.558C473.717 453.537 459.577 463.387 460.416 484.76C455.721 474.283 454.207 463.806 460.841 453.325C455.572 454.159 450.292 453.478 445.012 452.07C430.846 451.274 424.244 438.353 418.008 424.832C426.432 437.625 436.099 445.052 449.655 435.728C458.308 420.64 444.348 404.978 436.152 392.349C425.062 381.915 408.091 387.526 394.206 380.746C374.558 367.911 382.738 344.842 390.419 331.533C386.557 339.477 384.502 347.94 389.574 358.459C400.543 374.738 413.201 373.409 426.448 365.95C408.643 340.241 401.388 311.202 416.584 278.832C431.356 253.792 451.461 239.076 459.046 215.673C460.135 203.443 457.341 192.955 451.11 184.03C456.459 187.297 461.569 194.634 466.015 212.544C472.309 182.091 485.732 162.763 507.005 155.718C524.651 139.392 545.876 123.23 525.007 115.654C514.702 113.173 498.703 121.45 497.583 116.233C497.094 111.84 497.492 107.642 503.903 104.758C509.523 101.081 513.852 96.7726 514.845 90.8435C515.541 97.3039 511.43 102.277 505.422 106.67C503.956 112.36 507.377 114.661 517.374 112.403C532.427 107.127 546.205 104.8 555.665 112.477C563.325 120.616 562.05 131.555 558.698 143.148C558.938 155.67 566.104 163.825 580.551 167.395C571.134 149.258 574.74 137.755 590.967 132.692C597.629 128.389 603.057 123.241 606.068 116.425C602.818 126.955 595.232 133.425 586.973 139.27C578.331 151.324 585.619 159.485 602.446 165.302C614.945 157.599 627.974 150.692 645.699 150.761C667.887 151.484 688.74 157.742 705.929 179.216C715.186 188.641 723.898 198.969 731.021 211.927C742.148 212.321 745.028 208.023 741.575 200.144L736.433 187.175C743.61 194.119 748.72 202.407 747.705 210.79C746.032 216.969 739.653 221.294 732.7 220.704C732.195 231.75 736.933 240.494 745.856 247.401C767.066 266.57 786.374 257.771 777.195 237.652C774.518 227.685 761.755 225.608 758.928 218.781C757.122 210.971 759.014 204.84 763.438 199.857C762.573 211.157 764.909 220.954 774.311 227.419C783.617 236.015 792.871 244.654 791.978 261.405C790.756 271.244 785.44 276.583 776.457 277.885C789.87 285.302 802.134 293.595 799.563 313.3C787.665 343.748 779.862 361.439 788.977 372.507C796.939 376.507 803.143 376.752 805.183 363.788L806.718 360.6L807.886 365.631C809.352 372.995 804.885 380.592 798.937 384.912C787.829 386.947 781.96 380.093 778.513 369.154C781.216 352.892 789.434 339.998 787.458 324.393C786.64 319.884 784.186 315.548 780.707 315.006C763.279 369.834 774.657 384.763 790.666 393.295C808.004 395.707 813.038 384.524 817.002 371.667C819.667 382.876 817.171 392.439 807.376 399.665C778.173 414.753 750.638 423.323 729.029 444.112C716.605 458.611 710.725 470.304 723.335 474.077C731.144 466.309 740.215 463.301 750.806 466.006C742.664 463.87 735.621 467.781 728.912 473.47C703.841 500.836 681.368 506.048 659.845 503.094C651.749 516.595 639.383 523.602 624.579 526.88C604.401 523.549 585.14 525.472 567.187 534.844C573.04 529.254 581.549 523.666 599.472 518.082ZM668.348 484.102C747.163 446.71 781.36 351.133 744.693 270.772C708.021 190.405 614.297 155.527 535.487 192.918C456.672 230.309 422.47 325.887 459.142 406.253C495.814 486.619 589.538 521.492 668.348 484.102Z" clip-rule="evenodd"/></g><path fill="red" fill-rule="evenodd" d="M458.6 375.513C438.399 295.54 486.385 214.116 565.72 193.752C645.057 173.394 725.836 221.766 746.036 301.735C766.238 381.698 718.246 463.127 638.916 483.491C559.575 503.848 478.795 455.476 458.6 375.513ZM634.836 467.366C705.344 449.271 747.997 376.905 730.043 305.841C712.09 234.772 640.297 191.781 569.794 209.876C499.287 227.972 456.64 300.337 474.588 371.407C492.541 442.47 564.339 485.462 634.836 467.366Z" clip-rule="evenodd"/></g></g><defs><filter id="filter0_b_1_2" width="470" height="478" x="365" y="75" color-interpolation-filters="sRGB" filterUnits="userSpaceOnUse"><feFlood flood-opacity="0" result="BackgroundImageFix"/><feGaussianBlur in="BackgroundImageFix" stdDeviation="8.5"/><feComposite in2="SourceAlpha" operator="in" result="effect1_backgroundBlur_1_2"/><feBlend in="SourceGraphic" in2="effect1_backgroundBlur_1_2" mode="normal" result="shape"/></filter><clipPath id="clip0_1_2"><rect width="436" height="444" fill="#fff" transform="translate(382 92)"/></clipPath></defs></svg>