<?xml version="1.0" encoding="UTF-8" standalone="no"?> <svg xmlns:xlink="http://www.w3.org/1999/xlink" xmlns="http://www.w3.org/2000/svg" fill="none" fill-rule="evenodd" stroke="black" stroke-width="0.501" stroke-linejoin="bevel" stroke-miterlimit="10" font-family="Times New Roman" font-size="16" style="font-variant-ligatures:none" version="1.1" overflow="visible" width="82.083pt" height="83.572pt" viewBox="138.296 259.635 82.083 83.572"><defs> </defs><g id="Layer 1" transform="scale(1 -1)"><g id="Group" stroke="none"><ellipse rx="30.534" ry="30.534" transform="translate(179.032 -306.557) rotate(104.802)" fill="#ffffff" stroke-linejoin="miter" stroke-width="0.028"></ellipse><ellipse rx="26.218" ry="26.218" transform="translate(179.551 -306.362) rotate(101.457)" fill="#ffffff" stroke-width="0.047" stroke-linejoin="miter"></ellipse><a xlink:href=""><g id="Group_1" stroke-linejoin="round" stroke-linecap="round"><path d="M 158.031,-312.966 L 158.383,-309.728 C 159.436,-310.198 160.335,-310.527 161.079,-310.713 C 161.824,-310.899 162.514,-310.985 163.15,-310.971 C 163.913,-310.954 164.514,-310.796 164.953,-310.495 C 165.393,-310.193 165.643,-309.754 165.706,-309.177 C 165.741,-308.854 165.683,-308.569 165.53,-308.322 C 165.378,-308.076 165.141,-307.84 164.818,-307.614 C 164.495,-307.39 163.828,-307.033 162.813,-306.547 C 161.862,-306.096 161.159,-305.658 160.706,-305.235 C 160.252,-304.811 159.908,-304.313 159.671,-303.742 C 159.434,-303.171 159.358,-302.5 159.441,-301.728 C 159.599,-300.274 160.215,-299.119 161.287,-298.266 C 162.363,-297.413 163.767,-296.967 165.502,-296.93 C 166.354,-296.912 167.157,-296.995 167.909,-297.18 C 168.66,-297.366 169.44,-297.634 170.245,-297.983 L 168.829,-300.717 C 167.993,-300.377 167.296,-300.141 166.74,-300.011 C 166.183,-299.88 165.628,-299.822 165.075,-299.834 C 164.417,-299.849 163.895,-300.012 163.51,-300.328 C 163.126,-300.643 162.906,-301.047 162.852,-301.542 C 162.819,-301.85 162.861,-302.116 162.978,-302.342 C 163.096,-302.568 163.298,-302.784 163.585,-302.991 C 163.872,-303.197 164.565,-303.565 165.664,-304.095 C 167.118,-304.797 168.088,-305.511 168.577,-306.238 C 169.066,-306.963 169.251,-307.863 169.134,-308.935 C 168.973,-310.419 168.314,-311.6 167.155,-312.478 C 165.996,-313.355 164.468,-313.815 162.568,-313.856 C 160.818,-313.893 159.306,-313.596 158.031,-312.966 Z" fill="#f41c1c" stroke-width="0.037" fill-rule="nonzero" marker-start="none" marker-end="none"></path><path d="M 158.031,-312.966 L 158.383,-309.728 C 159.436,-310.198 160.335,-310.527 161.079,-310.713 C 161.824,-310.899 162.514,-310.985 163.15,-310.971 C 163.913,-310.954 164.514,-310.796 164.953,-310.495 C 165.393,-310.193 165.643,-309.754 165.706,-309.177 C 165.741,-308.854 165.683,-308.569 165.53,-308.322 C 165.378,-308.076 165.141,-307.84 164.818,-307.614 C 164.495,-307.39 163.828,-307.033 162.813,-306.547 C 161.862,-306.096 161.159,-305.658 160.706,-305.235 C 160.252,-304.811 159.908,-304.313 159.671,-303.742 C 159.434,-303.171 159.358,-302.5 159.441,-301.728 C 159.599,-300.274 160.215,-299.119 161.287,-298.266 C 162.363,-297.413 163.767,-296.967 165.502,-296.93 C 166.354,-296.912 167.157,-296.995 167.909,-297.18 C 168.66,-297.366 169.44,-297.634 170.245,-297.983 L 168.829,-300.717 C 167.993,-300.377 167.296,-300.141 166.74,-300.011 C 166.183,-299.88 165.628,-299.822 165.075,-299.834 C 164.417,-299.849 163.895,-300.012 163.51,-300.328 C 163.126,-300.643 162.906,-301.047 162.852,-301.542 C 162.819,-301.85 162.861,-302.116 162.978,-302.342 C 163.096,-302.568 163.298,-302.784 163.585,-302.991 C 163.872,-303.197 164.565,-303.565 165.664,-304.095 C 167.118,-304.797 168.088,-305.511 168.577,-306.238 C 169.066,-306.963 169.251,-307.863 169.134,-308.935 C 168.973,-310.419 168.314,-311.6 167.155,-312.478 C 165.996,-313.355 164.468,-313.815 162.568,-313.856 C 160.818,-313.893 159.306,-313.596 158.031,-312.966 Z" fill="none" stroke-width="0.574" marker-start="none" marker-end="none"></path><path d="M 173.137,-312.913 C 172.274,-312.404 171.65,-311.66 171.263,-310.682 C 170.877,-309.703 170.755,-308.554 170.898,-307.234 C 171.121,-305.18 171.83,-303.571 173.022,-302.409 C 174.216,-301.247 175.78,-300.643 177.718,-300.602 C 178.922,-300.576 179.955,-300.817 180.819,-301.321 C 181.681,-301.826 182.306,-302.564 182.693,-303.535 C 183.081,-304.507 183.202,-305.652 183.059,-306.971 C 182.838,-309.018 182.125,-310.63 180.923,-311.808 C 179.72,-312.986 178.158,-313.596 176.236,-313.638 C 175.032,-313.663 173.998,-313.422 173.137,-312.913 Z M 178.652,-309.888 C 179.12,-309.247 179.423,-308.299 179.559,-307.047 C 179.694,-305.803 179.594,-304.874 179.257,-304.26 C 178.921,-303.647 178.294,-303.35 177.373,-303.369 C 176.46,-303.389 175.77,-303.713 175.297,-304.34 C 174.826,-304.967 174.523,-305.907 174.387,-307.158 C 174.252,-308.403 174.354,-309.34 174.693,-309.969 C 175.031,-310.596 175.66,-310.901 176.58,-310.881 C 177.493,-310.861 178.183,-310.531 178.652,-309.888 Z" fill="#f41c1c" stroke-width="0.037" fill-rule="nonzero" marker-start="none" marker-end="none"></path><path d="M 173.137,-312.913 C 172.274,-312.404 171.65,-311.66 171.263,-310.682 C 170.877,-309.703 170.755,-308.554 170.898,-307.234 C 171.121,-305.18 171.83,-303.571 173.022,-302.409 C 174.216,-301.247 175.78,-300.643 177.718,-300.602 C 178.922,-300.576 179.955,-300.817 180.819,-301.321 C 181.681,-301.826 182.306,-302.564 182.693,-303.535 C 183.081,-304.507 183.202,-305.652 183.059,-306.971 C 182.838,-309.018 182.125,-310.63 180.923,-311.808 C 179.72,-312.986 178.158,-313.596 176.236,-313.638 C 175.032,-313.663 173.998,-313.422 173.137,-312.913 Z M 178.652,-309.888 C 179.12,-309.247 179.423,-308.299 179.559,-307.047 C 179.694,-305.803 179.594,-304.874 179.257,-304.26 C 178.921,-303.647 178.294,-303.35 177.373,-303.369 C 176.46,-303.389 175.77,-303.713 175.297,-304.34 C 174.826,-304.967 174.523,-305.907 174.387,-307.158 C 174.252,-308.403 174.354,-309.34 174.693,-309.969 C 175.031,-310.596 175.66,-310.901 176.58,-310.881 C 177.493,-310.861 178.183,-310.531 178.652,-309.888 Z" fill="none" stroke-width="0.574" marker-start="none" marker-end="none"></path><path d="M 189.727,-311.599 L 190.039,-311.939 C 189.798,-311.812 189.009,-310.181 189.322,-309.016 C 189.467,-307.681 190.039,-306.687 191.039,-306.033 C 192.039,-305.38 193.481,-304.999 195.366,-304.891 L 197.55,-304.776 L 197.61,-304.226 C 197.748,-302.951 197.166,-302.328 195.865,-302.356 C 194.862,-302.377 193.652,-302.707 192.232,-303.343 L 191.351,-301.051 C 192.877,-300.263 194.518,-299.849 196.276,-299.811 C 197.958,-299.776 199.208,-300.114 200.026,-300.831 C 200.844,-301.545 201.171,-302.653 201.008,-304.153 L 200.099,-312.531 L 197.71,-312.582 L 196.757,-312.6 L 196.886,-311.169 L 196.886,-311.169 L 197.23,-307.712 L 197.332,-306.778 L 196.003,-306.851 C 195.005,-306.904 194.246,-307.1 193.724,-307.44 C 193.202,-307.78 192.904,-308.287 192.831,-308.962 C 192.726,-309.93 193.227,-310.4 194.333,-310.377 C 194.502,-310.373 195.992,-310.257 196.149,-310.233 L 195.914,-312.653 C 192.55,-313.05 190.728,-312.74 190.039,-311.939 L 189.727,-311.599 Z" fill="#f41c1c" stroke-width="0.037" fill-rule="nonzero" marker-start="none" marker-end="none"></path><path d="M 189.727,-311.599 L 190.039,-311.939 C 189.798,-311.812 189.009,-310.181 189.322,-309.016 C 189.467,-307.681 190.039,-306.687 191.039,-306.033 C 192.039,-305.38 193.481,-304.999 195.366,-304.891 L 197.55,-304.776 L 197.61,-304.226 C 197.748,-302.951 197.166,-302.328 195.865,-302.356 C 194.862,-302.377 193.652,-302.707 192.232,-303.343 L 191.351,-301.051 C 192.877,-300.263 194.518,-299.849 196.276,-299.811 C 197.958,-299.776 199.208,-300.114 200.026,-300.831 C 200.844,-301.545 201.171,-302.653 201.008,-304.153 L 200.099,-312.531 L 197.71,-312.582 L 196.757,-312.6 L 196.886,-311.169 L 196.886,-311.169 L 197.23,-307.712 L 197.332,-306.778 L 196.003,-306.851 C 195.005,-306.904 194.246,-307.1 193.724,-307.44 C 193.202,-307.78 192.904,-308.287 192.831,-308.962 C 192.726,-309.93 193.227,-310.4 194.333,-310.377 C 194.502,-310.373 195.992,-310.257 196.149,-310.233 L 195.914,-312.653 C 192.55,-313.05 190.728,-312.74 190.039,-311.939" fill="none" stroke-width="0.574"></path></g></a><a xlink:href=""><g id="Group_2" stroke-linejoin="round" stroke-linecap="round"><rect x="-11.2593326601005" y="-59.8623448529975" width="22.5186653202011" height="119.724689705995" rx="1.46811343199151" ry="1.46811343199151" transform="matrix(0.149826 -0.0162506 0.0162506 0.149826 186.495 -304.5)" fill="#f41c1c" fill-rule="nonzero" stroke-width="0.037"></rect><rect x="-11.2593326601005" y="-59.8623448529975" width="22.5186653202011" height="119.724689705995" rx="1.46811343199151" ry="1.46811343199151" transform="matrix(0.149826 -0.0162506 0.0162506 0.149826 186.665 -304.745)" stroke-width="0.574"></rect></g></a><g id="ClipView" fill="#ffcf00" stroke-linejoin="miter" stroke-width="0.039"><a xlink:href=""><g id="Group_5"><path d="M 179.238,-340.052 C 179.436,-337.172 174.725,-337.282 170.936,-338.119 C 165.953,-339.929 164.269,-336.551 162.276,-333.662 C 161.237,-335.739 162.631,-337.817 164.461,-339.894 C 161.438,-337.292 159.298,-334.416 157.946,-331.295 C 155.563,-327.903 152.901,-329.757 153.059,-333.78 C 152.175,-331.808 151.89,-329.836 153.139,-327.863 C 152.147,-328.02 151.153,-327.892 150.16,-327.627 C 147.492,-327.477 146.249,-325.045 145.075,-322.5 C 146.661,-324.908 148.481,-326.306 151.033,-324.551 C 152.662,-321.711 150.034,-318.763 148.491,-316.386 C 146.404,-314.422 143.208,-315.478 140.594,-314.202 C 136.895,-311.786 138.435,-307.444 139.882,-304.939 C 139.154,-306.434 138.767,-308.027 139.722,-310.007 C 141.787,-313.071 144.17,-312.821 146.664,-311.417 C 143.312,-306.578 141.946,-301.112 144.807,-295.019 C 147.588,-290.306 151.373,-287.536 152.801,-283.131 C 153.006,-280.829 152.48,-278.855 151.307,-277.175 C 152.314,-277.79 153.276,-279.171 154.113,-282.542 C 155.298,-276.81 157.825,-273.172 161.83,-271.846 C 165.152,-268.773 169.149,-265.731 165.219,-264.305 C 163.279,-263.838 160.268,-265.396 160.056,-264.414 C 159.964,-263.587 160.04,-262.797 161.246,-262.254 C 162.304,-261.562 163.119,-260.751 163.306,-259.635 C 163.438,-260.851 162.663,-261.787 161.532,-262.614 C 161.256,-263.685 161.9,-264.118 163.782,-263.693 C 166.616,-262.7 169.21,-262.262 170.992,-263.707 C 172.434,-265.239 172.193,-267.298 171.562,-269.48 C 171.607,-271.837 172.957,-273.372 175.676,-274.044 C 173.903,-270.63 174.582,-268.465 177.638,-267.512 C 178.891,-266.702 179.913,-265.733 180.48,-264.45 C 179.868,-266.432 178.44,-267.65 176.885,-268.75 C 175.258,-271.019 176.63,-272.555 179.798,-273.65 C 182.151,-272.2 184.605,-270.9 187.941,-270.913 C 192.118,-271.049 196.044,-272.227 199.28,-276.269 C 201.023,-278.043 202.663,-279.987 204.004,-282.426 C 206.1,-282.5 206.641,-281.691 205.991,-280.208 L 205.023,-277.767 C 206.374,-279.074 207.337,-280.634 207.146,-282.212 C 206.83,-283.375 205.629,-284.189 204.32,-284.078 C 204.225,-286.157 205.117,-287.803 206.798,-289.103 C 210.79,-292.711 214.425,-291.055 212.697,-287.268 C 212.193,-285.392 209.79,-285.001 209.258,-283.716 C 208.918,-282.246 209.275,-281.092 210.107,-280.154 C 209.944,-282.281 210.384,-284.125 212.154,-285.342 C 213.906,-286.96 215.648,-288.586 215.48,-291.739 C 215.25,-293.591 214.249,-294.596 212.558,-294.841 C 215.083,-296.237 217.392,-297.798 216.908,-301.507 C 214.668,-307.238 213.199,-310.568 214.915,-312.651 C 216.414,-313.404 217.582,-313.45 217.966,-311.01 L 218.255,-310.41 L 218.475,-311.357 C 218.752,-312.743 217.91,-314.173 216.79,-314.986 C 214.699,-315.369 213.595,-314.079 212.945,-312.02 C 213.454,-308.959 215.001,-306.532 214.629,-303.595 C 214.475,-302.746 214.014,-301.93 213.358,-301.828 C 210.077,-312.148 212.22,-314.958 215.233,-316.564 C 218.497,-317.018 219.445,-314.913 220.191,-312.493 C 220.693,-314.603 220.223,-316.403 218.379,-317.763 C 212.882,-320.603 207.697,-322.216 203.629,-326.129 C 201.29,-328.858 200.183,-331.059 202.557,-331.769 C 204.027,-330.307 205.736,-329.741 207.729,-330.25 C 206.196,-329.848 204.87,-330.584 203.608,-331.655 C 198.887,-336.806 194.656,-337.787 190.604,-337.231 C 189.08,-339.772 186.752,-341.091 183.965,-341.708 C 180.166,-341.081 176.54,-341.443 173.16,-343.207 C 174.262,-342.155 175.865,-341.103 179.238,-340.052 Z M 192.205,-333.656 C 207.043,-326.618 213.482,-308.628 206.578,-293.502 C 199.675,-278.375 182.03,-271.81 167.192,-278.848 C 152.354,-285.886 145.915,-303.876 152.819,-319.003 C 159.723,-334.13 177.368,-340.694 192.205,-333.656 Z" marker-start="none" marker-end="none"></path></g></a><clipPath id="ClipPath"><path d="M 179.238,-340.052 C 179.436,-337.172 174.725,-337.282 170.936,-338.119 C 165.953,-339.929 164.269,-336.551 162.276,-333.662 C 161.237,-335.739 162.631,-337.817 164.461,-339.894 C 161.438,-337.292 159.298,-334.416 157.946,-331.295 C 155.563,-327.903 152.901,-329.757 153.059,-333.78 C 152.175,-331.808 151.89,-329.836 153.139,-327.863 C 152.147,-328.02 151.153,-327.892 150.16,-327.627 C 147.492,-327.477 146.249,-325.045 145.075,-322.5 C 146.661,-324.908 148.481,-326.306 151.033,-324.551 C 152.662,-321.711 150.034,-318.763 148.491,-316.386 C 146.404,-314.422 143.208,-315.478 140.594,-314.202 C 136.895,-311.786 138.435,-307.444 139.882,-304.939 C 139.154,-306.434 138.767,-308.027 139.722,-310.007 C 141.787,-313.071 144.17,-312.821 146.664,-311.417 C 143.312,-306.578 141.946,-301.112 144.807,-295.019 C 147.588,-290.306 151.373,-287.536 152.801,-283.131 C 153.006,-280.829 152.48,-278.855 151.307,-277.175 C 152.314,-277.79 153.276,-279.171 154.113,-282.542 C 155.298,-276.81 157.825,-273.172 161.83,-271.846 C 165.152,-268.773 169.149,-265.731 165.219,-264.305 C 163.279,-263.838 160.268,-265.396 160.056,-264.414 C 159.964,-263.587 160.04,-262.797 161.246,-262.254 C 162.304,-261.562 163.119,-260.751 163.306,-259.635 C 163.438,-260.851 162.663,-261.787 161.532,-262.614 C 161.256,-263.685 161.9,-264.118 163.782,-263.693 C 166.616,-262.7 169.21,-262.262 170.992,-263.707 C 172.434,-265.239 172.193,-267.298 171.562,-269.48 C 171.607,-271.837 172.957,-273.372 175.676,-274.044 C 173.903,-270.63 174.582,-268.465 177.638,-267.512 C 178.891,-266.702 179.913,-265.733 180.48,-264.45 C 179.868,-266.432 178.44,-267.65 176.885,-268.75 C 175.258,-271.019 176.63,-272.555 179.798,-273.65 C 182.151,-272.2 184.605,-270.9 187.941,-270.913 C 192.118,-271.049 196.044,-272.227 199.28,-276.269 C 201.023,-278.043 202.663,-279.987 204.004,-282.426 C 206.1,-282.5 206.641,-281.691 205.991,-280.208 L 205.023,-277.767 C 206.374,-279.074 207.337,-280.634 207.146,-282.212 C 206.83,-283.375 205.629,-284.189 204.32,-284.078 C 204.225,-286.157 205.117,-287.803 206.798,-289.103 C 210.79,-292.711 214.425,-291.055 212.697,-287.268 C 212.193,-285.392 209.79,-285.001 209.258,-283.716 C 208.918,-282.246 209.275,-281.092 210.107,-280.154 C 209.944,-282.281 210.384,-284.125 212.154,-285.342 C 213.906,-286.96 215.648,-288.586 215.48,-291.739 C 215.25,-293.591 214.249,-294.596 212.558,-294.841 C 215.083,-296.237 217.392,-297.798 216.908,-301.507 C 214.668,-307.238 213.199,-310.568 214.915,-312.651 C 216.414,-313.404 217.582,-313.45 217.966,-311.01 L 218.255,-310.41 L 218.475,-311.357 C 218.752,-312.743 217.91,-314.173 216.79,-314.986 C 214.699,-315.369 213.595,-314.079 212.945,-312.02 C 213.454,-308.959 215.001,-306.532 214.629,-303.595 C 214.475,-302.746 214.014,-301.93 213.358,-301.828 C 210.077,-312.148 212.22,-314.958 215.233,-316.564 C 218.497,-317.018 219.445,-314.913 220.191,-312.493 C 220.693,-314.603 220.223,-316.403 218.379,-317.763 C 212.882,-320.603 207.697,-322.216 203.629,-326.129 C 201.29,-328.858 200.183,-331.059 202.557,-331.769 C 204.027,-330.307 205.736,-329.741 207.729,-330.25 C 206.196,-329.848 204.87,-330.584 203.608,-331.655 C 198.887,-336.806 194.656,-337.787 190.604,-337.231 C 189.08,-339.772 186.752,-341.091 183.965,-341.708 C 180.166,-341.081 176.54,-341.443 173.16,-343.207 C 174.262,-342.155 175.865,-341.103 179.238,-340.052 Z M 192.205,-333.656 C 207.043,-326.618 213.482,-308.628 206.578,-293.502 C 199.675,-278.375 182.03,-271.81 167.192,-278.848 C 152.354,-285.886 145.915,-303.876 152.819,-319.003 C 159.723,-334.13 177.368,-340.694 192.205,-333.656 Z"></path></clipPath><g clip-path="url(#ClipPath)"><a xlink:href=""><path d="M 179.238,-340.052 C 179.436,-337.172 174.725,-337.282 170.936,-338.119 C 165.952,-339.929 164.269,-336.551 162.276,-333.662 C 161.237,-335.739 162.631,-337.817 164.461,-339.894 C 161.437,-337.292 159.298,-334.416 157.945,-331.295 C 155.563,-327.903 152.901,-329.757 153.059,-333.78 C 152.175,-331.808 151.89,-329.836 153.139,-327.863 C 152.147,-328.02 151.153,-327.892 150.159,-327.627 C 147.492,-327.477 146.249,-325.045 145.075,-322.5 C 146.661,-324.908 148.481,-326.306 151.033,-324.551 C 152.662,-321.711 150.034,-318.763 148.491,-316.386 C 146.403,-314.422 143.208,-315.478 140.594,-314.202 C 136.895,-311.786 138.435,-307.444 139.881,-304.939 C 139.154,-306.434 138.767,-308.027 139.722,-310.007 C 141.787,-313.071 144.17,-312.821 146.664,-311.417 C 143.312,-306.578 141.946,-301.112 144.807,-295.019 C 147.588,-290.306 151.373,-287.536 152.801,-283.131 C 153.006,-280.829 152.48,-278.855 151.307,-277.175 C 152.314,-277.79 153.276,-279.171 154.113,-282.542 C 155.298,-276.81 157.825,-273.172 161.83,-271.846 C 165.152,-268.773 169.148,-265.731 165.219,-264.305 C 163.279,-263.838 160.267,-265.396 160.056,-264.414 C 159.964,-263.587 160.039,-262.797 161.246,-262.254 C 162.304,-261.562 163.119,-260.751 163.306,-259.635 C 163.437,-260.851 162.663,-261.787 161.532,-262.614 C 161.256,-263.685 161.9,-264.118 163.782,-263.693 C 166.616,-262.7 169.21,-262.262 170.991,-263.707 C 172.433,-265.239 172.193,-267.298 171.562,-269.48 C 171.607,-271.837 172.956,-273.372 175.676,-274.044 C 173.903,-270.63 174.582,-268.465 177.637,-267.512 C 178.891,-266.702 179.913,-265.733 180.48,-264.45 C 179.868,-266.432 178.44,-267.65 176.885,-268.75 C 175.258,-271.019 176.63,-272.555 179.798,-273.65 C 182.151,-272.2 184.604,-270.9 187.941,-270.913 C 192.118,-271.049 196.044,-272.227 199.28,-276.269 C 201.023,-278.043 202.663,-279.987 204.004,-282.426 C 206.099,-282.5 206.641,-281.691 205.991,-280.208 L 205.023,-277.767 C 206.374,-279.074 207.336,-280.634 207.145,-282.212 C 206.83,-283.375 205.629,-284.189 204.32,-284.078 C 204.225,-286.157 205.117,-287.803 206.797,-289.103 C 210.79,-292.711 214.425,-291.055 212.697,-287.268 C 212.193,-285.392 209.79,-285.001 209.258,-283.716 C 208.918,-282.246 209.274,-281.092 210.107,-280.154 C 209.944,-282.281 210.384,-284.125 212.154,-285.342 C 213.906,-286.96 215.648,-288.586 215.48,-291.739 C 215.25,-293.591 214.249,-294.596 212.558,-294.841 C 215.083,-296.237 217.392,-297.798 216.908,-301.507 C 214.668,-307.238 213.199,-310.568 214.915,-312.651 C 216.414,-313.404 217.582,-313.45 217.966,-311.01 L 218.255,-310.41 L 218.475,-311.357 C 218.751,-312.743 217.91,-314.173 216.79,-314.986 C 214.699,-315.369 213.594,-314.079 212.945,-312.02 C 213.454,-308.959 215.001,-306.532 214.629,-303.595 C 214.475,-302.746 214.013,-301.93 213.358,-301.828 C 210.077,-312.148 212.219,-314.958 215.233,-316.564 C 218.497,-317.018 219.445,-314.913 220.191,-312.493 C 220.693,-314.603 220.223,-316.403 218.379,-317.763 C 212.881,-320.603 207.697,-322.216 203.629,-326.129 C 201.29,-328.858 200.183,-331.059 202.557,-331.769 C 204.027,-330.307 205.735,-329.741 207.729,-330.25 C 206.196,-329.848 204.87,-330.584 203.607,-331.655 C 198.887,-336.806 194.656,-337.787 190.604,-337.231 C 189.08,-339.772 186.752,-341.091 183.965,-341.708 C 180.166,-341.081 176.54,-341.443 173.16,-343.207 C 174.262,-342.155 175.864,-341.103 179.238,-340.052 Z M 192.205,-333.656 C 207.043,-326.618 213.481,-308.628 206.578,-293.502 C 199.674,-278.375 182.029,-271.81 167.192,-278.848 C 152.354,-285.886 145.915,-303.876 152.819,-319.003 C 159.723,-334.13 177.368,-340.694 192.205,-333.656 Z" marker-start="none" marker-end="none"></path></a></g></g><path d="M 152.717,-313.217 C 148.914,-298.164 157.948,-282.838 172.884,-279.005 C 187.82,-275.173 203.028,-284.278 206.831,-299.33 C 210.634,-314.381 201.599,-329.708 186.664,-333.541 C 171.727,-337.373 156.519,-328.268 152.717,-313.217 Z M 185.896,-330.506 C 199.17,-327.1 207.2,-313.479 203.82,-300.103 C 200.44,-286.726 186.924,-278.634 173.651,-282.04 C 160.377,-285.446 152.348,-299.067 155.727,-312.444 C 159.107,-325.82 172.624,-333.912 185.896,-330.506 Z" fill="#ff0000" stroke-linejoin="miter" stroke-width="0.033" marker-start="none" marker-end="none"></path></g></g><g id="Annotations" transform="scale(1 -1)"></g></svg> 